%TF.GenerationSoftware,KiCad,Pcbnew,8.0.4-8.0.4-0~ubuntu22.04.1*%
%TF.CreationDate,2024-09-15T12:59:40-04:00*%
%TF.ProjectId,RonsEcono15,526f6e73-4563-46f6-9e6f-31352e6b6963,rev?*%
%TF.SameCoordinates,Original*%
%TF.FileFunction,Profile,NP*%
%FSLAX46Y46*%
G04 Gerber Fmt 4.6, Leading zero omitted, Abs format (unit mm)*
G04 Created by KiCad (PCBNEW 8.0.4-8.0.4-0~ubuntu22.04.1) date 2024-09-15 12:59:40*
%MOMM*%
%LPD*%
G01*
G04 APERTURE LIST*
%TA.AperFunction,Profile*%
%ADD10C,0.200000*%
%TD*%
%TA.AperFunction,Profile*%
%ADD11C,0.050000*%
%TD*%
G04 APERTURE END LIST*
D10*
X189044996Y-100319743D02*
G75*
G02*
X183964996Y-105399746I-5079996J-7D01*
G01*
D11*
X151400000Y-84000000D02*
G75*
G02*
X148600000Y-84000000I-1400000J0D01*
G01*
X148600000Y-84000000D02*
G75*
G02*
X151400000Y-84000000I1400000J0D01*
G01*
X151400000Y-61000000D02*
G75*
G02*
X148600000Y-61000000I-1400000J0D01*
G01*
X148600000Y-61000000D02*
G75*
G02*
X151400000Y-61000000I1400000J0D01*
G01*
D10*
X95255095Y-45709744D02*
X183964996Y-45709745D01*
D11*
X97382872Y-50319743D02*
G75*
G02*
X93777320Y-50319743I-1802776J0D01*
G01*
X93777320Y-50319743D02*
G75*
G02*
X97382872Y-50319743I1802776J0D01*
G01*
D10*
X183964996Y-105399743D02*
X95255097Y-105399742D01*
X189044998Y-50789745D02*
X189045000Y-100319743D01*
D11*
X97382872Y-100319743D02*
G75*
G02*
X93777320Y-100319743I-1802776J0D01*
G01*
X93777320Y-100319743D02*
G75*
G02*
X97382872Y-100319743I1802776J0D01*
G01*
X171400000Y-84000000D02*
G75*
G02*
X168600000Y-84000000I-1400000J0D01*
G01*
X168600000Y-84000000D02*
G75*
G02*
X171400000Y-84000000I1400000J0D01*
G01*
D10*
X95255097Y-105399742D02*
G75*
G02*
X90175058Y-100319742I3J5080042D01*
G01*
X90175095Y-50789744D02*
G75*
G02*
X95255095Y-45709745I5079995J4D01*
G01*
X183964996Y-45709745D02*
G75*
G02*
X189044955Y-50789745I4J-5079955D01*
G01*
X90175097Y-100319742D02*
X90175095Y-50789744D01*
D11*
X172382776Y-50154743D02*
G75*
G02*
X168777224Y-50154743I-1802776J0D01*
G01*
X168777224Y-50154743D02*
G75*
G02*
X172382776Y-50154743I1802776J0D01*
G01*
X171400000Y-61000000D02*
G75*
G02*
X168600000Y-61000000I-1400000J0D01*
G01*
X168600000Y-61000000D02*
G75*
G02*
X171400000Y-61000000I1400000J0D01*
G01*
M02*
