%TF.GenerationSoftware,KiCad,Pcbnew,8.0.4-8.0.4-0~ubuntu22.04.1*%
%TF.CreationDate,2024-09-15T12:59:40-04:00*%
%TF.ProjectId,RonsEcono15,526f6e73-4563-46f6-9e6f-31352e6b6963,rev?*%
%TF.SameCoordinates,Original*%
%TF.FileFunction,Copper,L1,Top*%
%TF.FilePolarity,Positive*%
%FSLAX46Y46*%
G04 Gerber Fmt 4.6, Leading zero omitted, Abs format (unit mm)*
G04 Created by KiCad (PCBNEW 8.0.4-8.0.4-0~ubuntu22.04.1) date 2024-09-15 12:59:40*
%MOMM*%
%LPD*%
G01*
G04 APERTURE LIST*
%ADD10C,0.300000*%
%TA.AperFunction,NonConductor*%
%ADD11C,0.300000*%
%TD*%
%TA.AperFunction,ComponentPad*%
%ADD12R,1.700000X1.700000*%
%TD*%
%TA.AperFunction,ComponentPad*%
%ADD13O,1.700000X1.700000*%
%TD*%
%TA.AperFunction,ComponentPad*%
%ADD14C,1.600000*%
%TD*%
%TA.AperFunction,ComponentPad*%
%ADD15O,1.600000X1.600000*%
%TD*%
%TA.AperFunction,ComponentPad*%
%ADD16R,2.000000X4.600000*%
%TD*%
%TA.AperFunction,ComponentPad*%
%ADD17O,2.000000X4.200000*%
%TD*%
%TA.AperFunction,ComponentPad*%
%ADD18O,4.200000X2.000000*%
%TD*%
%TA.AperFunction,ComponentPad*%
%ADD19R,1.550000X1.550000*%
%TD*%
%TA.AperFunction,ComponentPad*%
%ADD20C,1.550000*%
%TD*%
%TA.AperFunction,ComponentPad*%
%ADD21O,1.600000X2.000000*%
%TD*%
%TA.AperFunction,ComponentPad*%
%ADD22R,1.600000X1.600000*%
%TD*%
%TA.AperFunction,ComponentPad*%
%ADD23R,1.800000X1.070000*%
%TD*%
%TA.AperFunction,ComponentPad*%
%ADD24O,1.800000X1.070000*%
%TD*%
%TA.AperFunction,ViaPad*%
%ADD25C,0.600000*%
%TD*%
%TA.AperFunction,Conductor*%
%ADD26C,0.200000*%
%TD*%
%TA.AperFunction,Conductor*%
%ADD27C,0.500000*%
%TD*%
G04 APERTURE END LIST*
D10*
D11*
G36*
X107033204Y-49033591D02*
G01*
X107033204Y-50733033D01*
X109487845Y-50733033D01*
X109487845Y-51084743D01*
X105978075Y-51084743D01*
X105978075Y-49033591D01*
X107033204Y-49033591D01*
G37*
G36*
X111231739Y-51158015D02*
G01*
X111231739Y-51146780D01*
X109818794Y-49565552D01*
X110902011Y-49565552D01*
X111738543Y-50670995D01*
X112526226Y-49565552D01*
X113539834Y-49565552D01*
X111977901Y-51363179D01*
X111949813Y-51401281D01*
X111903407Y-51449153D01*
X111847231Y-51497024D01*
X111766631Y-51547338D01*
X111654279Y-51592279D01*
X111495521Y-51637708D01*
X111295242Y-51669948D01*
X111053456Y-51692989D01*
X111035123Y-51693884D01*
X110787094Y-51700396D01*
X110711502Y-51700723D01*
X110467104Y-51694919D01*
X110359792Y-51689488D01*
X110359792Y-51394442D01*
X110606587Y-51410986D01*
X110619911Y-51411051D01*
X110872505Y-51390371D01*
X111055884Y-51337778D01*
X111193099Y-51250794D01*
X111231739Y-51158015D01*
G37*
G36*
X115753895Y-49596327D02*
G01*
X115753895Y-49858155D01*
X115205570Y-49858155D01*
X115205570Y-50685161D01*
X115229899Y-50784843D01*
X115267852Y-50819006D01*
X115504987Y-50851120D01*
X115529192Y-50851246D01*
X115753895Y-50842942D01*
X115753895Y-51118448D01*
X115509640Y-51140537D01*
X115265829Y-51148742D01*
X115184809Y-51149223D01*
X114906876Y-51140505D01*
X114635537Y-51107028D01*
X114432033Y-51048444D01*
X114296364Y-50964753D01*
X114228529Y-50855954D01*
X114220050Y-50792140D01*
X114220050Y-49858155D01*
X113735228Y-49858155D01*
X113735228Y-49596327D01*
X114220050Y-49596327D01*
X114220050Y-49188441D01*
X115205570Y-49188441D01*
X115205570Y-49596327D01*
X115753895Y-49596327D01*
G37*
G36*
X118118166Y-49596327D02*
G01*
X118118166Y-49858155D01*
X117569841Y-49858155D01*
X117569841Y-50685161D01*
X117594170Y-50784843D01*
X117632123Y-50819006D01*
X117869258Y-50851120D01*
X117893463Y-50851246D01*
X118118166Y-50842942D01*
X118118166Y-51118448D01*
X117873911Y-51140537D01*
X117630100Y-51148742D01*
X117549080Y-51149223D01*
X117271147Y-51140505D01*
X116999808Y-51107028D01*
X116796304Y-51048444D01*
X116660635Y-50964753D01*
X116592800Y-50855954D01*
X116584321Y-50792140D01*
X116584321Y-49858155D01*
X116099499Y-49858155D01*
X116099499Y-49596327D01*
X116584321Y-49596327D01*
X116584321Y-49188441D01*
X117569841Y-49188441D01*
X117569841Y-49596327D01*
X118118166Y-49596327D01*
G37*
G36*
X119758257Y-49033591D02*
G01*
X119758257Y-51084743D01*
X118772737Y-51084743D01*
X118772737Y-49033591D01*
X119758257Y-49033591D01*
G37*
G36*
X122503837Y-49546492D02*
G01*
X122724586Y-49562621D01*
X122959365Y-49594251D01*
X123184460Y-49640540D01*
X123199638Y-49644198D01*
X123399894Y-49702088D01*
X123575372Y-49772319D01*
X123620957Y-49794652D01*
X123755731Y-49878707D01*
X123860460Y-49973755D01*
X123912828Y-50036941D01*
X123972720Y-50135220D01*
X124010429Y-50241990D01*
X124025402Y-50345344D01*
X124026400Y-50381323D01*
X124019073Y-50448734D01*
X121472841Y-50448734D01*
X121491064Y-50548683D01*
X121510699Y-50599676D01*
X121585804Y-50692824D01*
X121623051Y-50723263D01*
X121788373Y-50798185D01*
X121862409Y-50816075D01*
X122105490Y-50844506D01*
X122260525Y-50848315D01*
X122518659Y-50836348D01*
X122753225Y-50794273D01*
X122928672Y-50721904D01*
X123012793Y-50656829D01*
X123983658Y-50656829D01*
X123897939Y-50750979D01*
X123762766Y-50847875D01*
X123587903Y-50933352D01*
X123402341Y-50998779D01*
X123343742Y-51015866D01*
X123126590Y-51067828D01*
X122894010Y-51107028D01*
X122646004Y-51133465D01*
X122382570Y-51147139D01*
X122225109Y-51149223D01*
X121980849Y-51144106D01*
X121709854Y-51124460D01*
X121462987Y-51090079D01*
X121240249Y-51040963D01*
X121041640Y-50977113D01*
X120951383Y-50939662D01*
X120793675Y-50855582D01*
X120668596Y-50760510D01*
X120576146Y-50654448D01*
X120524030Y-50557666D01*
X120494573Y-50453253D01*
X120487322Y-50364226D01*
X120498830Y-50248647D01*
X120518469Y-50187394D01*
X121486275Y-50187394D01*
X122999359Y-50187394D01*
X122956252Y-50082215D01*
X122866435Y-49988014D01*
X122769771Y-49931428D01*
X122571953Y-49869652D01*
X122336359Y-49843264D01*
X122232437Y-49841058D01*
X121975506Y-49857631D01*
X121746128Y-49917157D01*
X121601646Y-50004756D01*
X121519572Y-50106222D01*
X121486275Y-50187394D01*
X120518469Y-50187394D01*
X120533356Y-50140963D01*
X120590898Y-50041174D01*
X120690332Y-49931849D01*
X120822910Y-49833892D01*
X120958710Y-49760946D01*
X121147588Y-49685910D01*
X121360681Y-49626399D01*
X121597987Y-49582412D01*
X121859508Y-49553950D01*
X122145244Y-49541013D01*
X122245870Y-49540151D01*
X122503837Y-49546492D01*
G37*
G36*
X129800824Y-49039940D02*
G01*
X130052871Y-49061350D01*
X130221620Y-49087324D01*
X130443714Y-49140459D01*
X130622013Y-49211914D01*
X130650266Y-49228008D01*
X130774220Y-49315447D01*
X130857873Y-49403863D01*
X130907423Y-49499873D01*
X130921376Y-49588022D01*
X130900237Y-49698266D01*
X130836821Y-49796964D01*
X130704916Y-49900165D01*
X130512131Y-49986741D01*
X130304972Y-50046189D01*
X130055535Y-50094094D01*
X130285658Y-50133844D01*
X130337636Y-50143919D01*
X130523260Y-50204491D01*
X130650266Y-50280207D01*
X130703847Y-50377077D01*
X130713770Y-50403793D01*
X130741376Y-50504137D01*
X130751627Y-50581114D01*
X130758497Y-50681549D01*
X130763992Y-50788482D01*
X130766282Y-50840011D01*
X130815923Y-50935917D01*
X130992206Y-51008539D01*
X130992206Y-51084743D01*
X129858920Y-51084743D01*
X129759093Y-50991096D01*
X129729471Y-50944059D01*
X129703797Y-50844110D01*
X129697750Y-50741934D01*
X129697719Y-50733033D01*
X129700605Y-50634151D01*
X129703825Y-50600653D01*
X129711153Y-50516145D01*
X129681467Y-50416956D01*
X129556059Y-50329544D01*
X129338802Y-50284186D01*
X129079141Y-50271471D01*
X129057803Y-50271414D01*
X127847580Y-50271414D01*
X127847580Y-51084743D01*
X126792451Y-51084743D01*
X126792451Y-49919704D01*
X127847580Y-49919704D01*
X129120085Y-49919704D01*
X129373907Y-49912217D01*
X129616802Y-49881798D01*
X129679401Y-49866459D01*
X129819535Y-49784760D01*
X129863327Y-49686780D01*
X129866247Y-49647129D01*
X129840487Y-49543700D01*
X129725998Y-49452170D01*
X129683065Y-49437569D01*
X129450729Y-49398368D01*
X129189569Y-49385760D01*
X129120085Y-49385301D01*
X127847580Y-49385301D01*
X127847580Y-49919704D01*
X126792451Y-49919704D01*
X126792451Y-49033591D01*
X129542625Y-49033591D01*
X129800824Y-49039940D01*
G37*
G36*
X133577808Y-49546492D02*
G01*
X133798557Y-49562621D01*
X134033335Y-49594251D01*
X134258431Y-49640540D01*
X134273609Y-49644198D01*
X134473864Y-49702088D01*
X134649342Y-49772319D01*
X134694928Y-49794652D01*
X134829702Y-49878707D01*
X134934430Y-49973755D01*
X134986798Y-50036941D01*
X135046690Y-50135220D01*
X135084400Y-50241990D01*
X135099373Y-50345344D01*
X135100371Y-50381323D01*
X135093044Y-50448734D01*
X132546812Y-50448734D01*
X132565035Y-50548683D01*
X132584670Y-50599676D01*
X132659774Y-50692824D01*
X132697022Y-50723263D01*
X132862343Y-50798185D01*
X132936380Y-50816075D01*
X133179461Y-50844506D01*
X133334495Y-50848315D01*
X133592630Y-50836348D01*
X133827196Y-50794273D01*
X134002643Y-50721904D01*
X134086763Y-50656829D01*
X135057629Y-50656829D01*
X134971910Y-50750979D01*
X134836737Y-50847875D01*
X134661874Y-50933352D01*
X134476312Y-50998779D01*
X134417712Y-51015866D01*
X134200560Y-51067828D01*
X133967981Y-51107028D01*
X133719974Y-51133465D01*
X133456540Y-51147139D01*
X133299080Y-51149223D01*
X133054819Y-51144106D01*
X132783824Y-51124460D01*
X132536958Y-51090079D01*
X132314220Y-51040963D01*
X132115610Y-50977113D01*
X132025354Y-50939662D01*
X131867645Y-50855582D01*
X131742566Y-50760510D01*
X131650117Y-50654448D01*
X131598000Y-50557666D01*
X131568543Y-50453253D01*
X131561292Y-50364226D01*
X131572801Y-50248647D01*
X131592440Y-50187394D01*
X132560246Y-50187394D01*
X134073330Y-50187394D01*
X134030223Y-50082215D01*
X133940406Y-49988014D01*
X133843742Y-49931428D01*
X133645924Y-49869652D01*
X133410330Y-49843264D01*
X133306407Y-49841058D01*
X133049477Y-49857631D01*
X132820098Y-49917157D01*
X132675617Y-50004756D01*
X132593543Y-50106222D01*
X132560246Y-50187394D01*
X131592440Y-50187394D01*
X131607326Y-50140963D01*
X131664869Y-50041174D01*
X131764302Y-49931849D01*
X131896881Y-49833892D01*
X132032681Y-49760946D01*
X132221559Y-49685910D01*
X132434651Y-49626399D01*
X132671958Y-49582412D01*
X132933479Y-49553950D01*
X133219215Y-49541013D01*
X133319841Y-49540151D01*
X133577808Y-49546492D01*
G37*
G36*
X139684809Y-49658364D02*
G01*
X138700511Y-49658364D01*
X138645570Y-49549296D01*
X138522881Y-49462794D01*
X138332443Y-49398858D01*
X138074257Y-49357488D01*
X137807349Y-49340250D01*
X137624621Y-49337429D01*
X137364114Y-49345568D01*
X137125347Y-49373011D01*
X136977377Y-49406306D01*
X136805573Y-49481074D01*
X136738954Y-49576236D01*
X136738019Y-49590465D01*
X136789005Y-49688773D01*
X136941962Y-49758015D01*
X137166921Y-49800936D01*
X137420609Y-49831867D01*
X137674049Y-49855307D01*
X137708885Y-49858155D01*
X138510001Y-49919704D01*
X138762921Y-49943667D01*
X139023592Y-49978482D01*
X139247214Y-50020683D01*
X139457415Y-50077958D01*
X139544370Y-50110214D01*
X139700808Y-50193805D01*
X139806048Y-50294552D01*
X139856614Y-50398508D01*
X139867992Y-50485371D01*
X139848457Y-50597633D01*
X139789853Y-50700312D01*
X139692180Y-50793408D01*
X139555437Y-50876922D01*
X139379625Y-50950854D01*
X139312339Y-50973368D01*
X139088642Y-51033131D01*
X138834291Y-51080529D01*
X138598915Y-51110583D01*
X138342251Y-51132049D01*
X138064300Y-51144929D01*
X137765061Y-51149223D01*
X137468171Y-51144965D01*
X137192688Y-51132192D01*
X136938612Y-51110905D01*
X136705943Y-51081102D01*
X136454998Y-51034098D01*
X136234879Y-50974833D01*
X136048019Y-50903993D01*
X135895935Y-50822265D01*
X135778627Y-50729650D01*
X135696095Y-50626146D01*
X135648339Y-50511755D01*
X135640148Y-50471204D01*
X136667189Y-50471204D01*
X136710862Y-50567327D01*
X136819234Y-50655321D01*
X136990811Y-50724729D01*
X137222274Y-50774233D01*
X137481782Y-50801405D01*
X137755310Y-50811339D01*
X137821236Y-50811679D01*
X138074575Y-50805922D01*
X138318675Y-50786020D01*
X138559645Y-50743373D01*
X138577168Y-50738895D01*
X138757445Y-50670089D01*
X138848807Y-50575254D01*
X138855605Y-50536173D01*
X138813764Y-50438453D01*
X138663478Y-50353334D01*
X138637008Y-50344687D01*
X138409196Y-50294511D01*
X138164286Y-50262167D01*
X137924737Y-50240208D01*
X137892067Y-50237708D01*
X137173993Y-50181532D01*
X136897159Y-50156997D01*
X136651924Y-50127723D01*
X136405754Y-50087578D01*
X136177081Y-50033799D01*
X136062688Y-49995908D01*
X135902708Y-49915816D01*
X135795085Y-49817872D01*
X135743374Y-49715824D01*
X135731739Y-49630032D01*
X135749642Y-49521983D01*
X135803352Y-49423517D01*
X135911268Y-49320751D01*
X136067921Y-49231029D01*
X136240985Y-49164505D01*
X136446879Y-49108560D01*
X136681710Y-49064190D01*
X136945478Y-49031395D01*
X137187389Y-49012907D01*
X137449396Y-49002458D01*
X137673470Y-48999886D01*
X137920175Y-49002998D01*
X138174455Y-49013180D01*
X138190043Y-49014052D01*
X138431454Y-49033529D01*
X138668875Y-49063716D01*
X138721271Y-49071693D01*
X138953149Y-49114596D01*
X139168388Y-49171354D01*
X139207315Y-49184045D01*
X139383753Y-49260423D01*
X139512790Y-49345718D01*
X139548033Y-49375531D01*
X139631381Y-49472549D01*
X139673990Y-49571016D01*
X139684809Y-49658364D01*
G37*
G36*
X142419399Y-49546492D02*
G01*
X142640148Y-49562621D01*
X142874926Y-49594251D01*
X143100022Y-49640540D01*
X143115200Y-49644198D01*
X143315455Y-49702088D01*
X143490933Y-49772319D01*
X143536519Y-49794652D01*
X143671293Y-49878707D01*
X143776021Y-49973755D01*
X143828389Y-50036941D01*
X143888281Y-50135220D01*
X143925991Y-50241990D01*
X143940964Y-50345344D01*
X143941962Y-50381323D01*
X143934635Y-50448734D01*
X141388403Y-50448734D01*
X141406626Y-50548683D01*
X141426261Y-50599676D01*
X141501366Y-50692824D01*
X141538613Y-50723263D01*
X141703934Y-50798185D01*
X141777971Y-50816075D01*
X142021052Y-50844506D01*
X142176086Y-50848315D01*
X142434221Y-50836348D01*
X142668787Y-50794273D01*
X142844234Y-50721904D01*
X142928354Y-50656829D01*
X143899220Y-50656829D01*
X143813501Y-50750979D01*
X143678328Y-50847875D01*
X143503465Y-50933352D01*
X143317903Y-50998779D01*
X143259303Y-51015866D01*
X143042152Y-51067828D01*
X142809572Y-51107028D01*
X142561566Y-51133465D01*
X142298132Y-51147139D01*
X142140671Y-51149223D01*
X141896410Y-51144106D01*
X141625415Y-51124460D01*
X141378549Y-51090079D01*
X141155811Y-51040963D01*
X140957201Y-50977113D01*
X140866945Y-50939662D01*
X140709236Y-50855582D01*
X140584157Y-50760510D01*
X140491708Y-50654448D01*
X140439591Y-50557666D01*
X140410134Y-50453253D01*
X140402883Y-50364226D01*
X140414392Y-50248647D01*
X140434031Y-50187394D01*
X141401837Y-50187394D01*
X142914921Y-50187394D01*
X142871814Y-50082215D01*
X142781997Y-49988014D01*
X142685333Y-49931428D01*
X142487515Y-49869652D01*
X142251921Y-49843264D01*
X142147999Y-49841058D01*
X141891068Y-49857631D01*
X141661689Y-49917157D01*
X141517208Y-50004756D01*
X141435134Y-50106222D01*
X141401837Y-50187394D01*
X140434031Y-50187394D01*
X140448917Y-50140963D01*
X140506460Y-50041174D01*
X140605894Y-49931849D01*
X140738472Y-49833892D01*
X140874272Y-49760946D01*
X141063150Y-49685910D01*
X141276242Y-49626399D01*
X141513549Y-49582412D01*
X141775070Y-49553950D01*
X142060806Y-49541013D01*
X142161432Y-49540151D01*
X142419399Y-49546492D01*
G37*
G36*
X146469264Y-49544255D02*
G01*
X146719762Y-49556568D01*
X147011250Y-49585755D01*
X147254158Y-49629536D01*
X147489474Y-49704784D01*
X147648882Y-49802834D01*
X147721754Y-49897692D01*
X147746045Y-50007143D01*
X147746045Y-50851246D01*
X147802220Y-50949676D01*
X147956923Y-51031750D01*
X147970748Y-51036871D01*
X147970748Y-51084743D01*
X146902186Y-51084743D01*
X146803110Y-50993971D01*
X146789834Y-50932823D01*
X146590380Y-51006365D01*
X146383112Y-51064692D01*
X146131424Y-51113508D01*
X145869100Y-51141615D01*
X145635786Y-51149223D01*
X145388338Y-51141407D01*
X145140248Y-51113930D01*
X144924229Y-51066669D01*
X144798033Y-51024170D01*
X144645137Y-50947453D01*
X144542280Y-50857984D01*
X144489461Y-50755764D01*
X144481739Y-50693465D01*
X144492168Y-50648525D01*
X145467259Y-50648525D01*
X145529319Y-50744295D01*
X145611362Y-50782370D01*
X145831562Y-50824769D01*
X146002151Y-50831707D01*
X146257804Y-50818655D01*
X146481274Y-50775059D01*
X146578564Y-50738895D01*
X146710609Y-50650189D01*
X146769760Y-50554980D01*
X146782507Y-50474135D01*
X146782507Y-50367157D01*
X146543082Y-50399234D01*
X146367294Y-50415029D01*
X146030239Y-50440430D01*
X145793886Y-50466957D01*
X145593044Y-50513703D01*
X145477209Y-50602706D01*
X145467259Y-50648525D01*
X144492168Y-50648525D01*
X144509049Y-50575788D01*
X144590980Y-50474019D01*
X144727532Y-50388160D01*
X144918705Y-50318209D01*
X145164498Y-50264168D01*
X145400459Y-50232390D01*
X145600371Y-50215238D01*
X145994823Y-50187394D01*
X146135263Y-50180555D01*
X146296463Y-50168832D01*
X146433239Y-50156131D01*
X146577343Y-50136592D01*
X146679925Y-50107283D01*
X146760525Y-50064784D01*
X146782507Y-50010074D01*
X146702307Y-49917498D01*
X146487885Y-49870172D01*
X146212199Y-49858155D01*
X145951396Y-49865572D01*
X145718609Y-49897654D01*
X145699289Y-49903096D01*
X145558468Y-49987894D01*
X145516107Y-50066250D01*
X144567224Y-50066250D01*
X144612371Y-49942945D01*
X144702626Y-49836081D01*
X144837990Y-49745658D01*
X145018463Y-49671676D01*
X145244044Y-49614133D01*
X145514733Y-49573032D01*
X145830532Y-49548371D01*
X146096983Y-49540665D01*
X146191439Y-49540151D01*
X146469264Y-49544255D01*
G37*
G36*
X148619213Y-49565552D02*
G01*
X149604733Y-49565552D01*
X149604733Y-49863528D01*
X149713950Y-49773664D01*
X149862465Y-49690792D01*
X150040706Y-49624659D01*
X150259437Y-49573162D01*
X150494311Y-49545432D01*
X150659862Y-49540151D01*
X150779541Y-49543082D01*
X150779541Y-49942174D01*
X150530110Y-49931477D01*
X150469352Y-49930939D01*
X150220268Y-49939395D01*
X149977093Y-49971864D01*
X149770226Y-50040522D01*
X149646106Y-50142326D01*
X149605577Y-50255968D01*
X149604733Y-50277276D01*
X149604733Y-51084743D01*
X148619213Y-51084743D01*
X148619213Y-49565552D01*
G37*
G36*
X152970399Y-49858155D02*
G01*
X152698145Y-49875655D01*
X152482219Y-49928153D01*
X152322621Y-50015651D01*
X152232652Y-50115302D01*
X152188841Y-50212522D01*
X152170065Y-50325298D01*
X152169283Y-50355922D01*
X152182640Y-50461099D01*
X152229598Y-50565191D01*
X152321427Y-50663174D01*
X152382995Y-50705189D01*
X152549377Y-50777220D01*
X152773346Y-50821699D01*
X152970399Y-50831707D01*
X153213563Y-50817754D01*
X153421027Y-50768204D01*
X153565436Y-50684062D01*
X153656241Y-50585304D01*
X153673818Y-50558643D01*
X154616596Y-50558643D01*
X154577226Y-50657024D01*
X154497760Y-50761643D01*
X154382180Y-50855322D01*
X154230486Y-50938062D01*
X154100022Y-50990465D01*
X153892905Y-51052325D01*
X153662646Y-51098991D01*
X153409247Y-51130463D01*
X153132706Y-51146742D01*
X152964293Y-51149223D01*
X152709418Y-51144142D01*
X152427890Y-51124633D01*
X152172895Y-51090493D01*
X151944432Y-51041720D01*
X151742503Y-50978317D01*
X151651488Y-50941128D01*
X151492534Y-50857150D01*
X151366468Y-50761289D01*
X151273288Y-50653543D01*
X151220760Y-50554677D01*
X151191071Y-50447559D01*
X151183763Y-50355922D01*
X151195271Y-50238833D01*
X151229797Y-50130283D01*
X151287339Y-50030273D01*
X151386773Y-49921531D01*
X151519351Y-49825086D01*
X151655151Y-49754107D01*
X151845274Y-49681396D01*
X152062102Y-49623728D01*
X152305634Y-49581103D01*
X152575871Y-49553523D01*
X152821467Y-49542031D01*
X152977726Y-49540151D01*
X153234725Y-49545698D01*
X153510464Y-49566191D01*
X153760258Y-49601784D01*
X153984105Y-49652477D01*
X154128110Y-49697932D01*
X154301752Y-49772544D01*
X154437993Y-49858750D01*
X154536835Y-49956550D01*
X154598278Y-50065945D01*
X154616596Y-50133661D01*
X153673818Y-50133661D01*
X153600145Y-50034010D01*
X153478590Y-49943449D01*
X153430797Y-49921658D01*
X153207587Y-49870310D01*
X152970399Y-49858155D01*
G37*
G36*
X157612234Y-50156131D02*
G01*
X157583308Y-50046497D01*
X157479409Y-49954173D01*
X157272203Y-49892349D01*
X157007733Y-49874763D01*
X156757984Y-49888711D01*
X156531850Y-49934926D01*
X156461851Y-49959271D01*
X156315758Y-50041818D01*
X156251477Y-50141568D01*
X156248138Y-50173228D01*
X156248138Y-51084743D01*
X155262618Y-51084743D01*
X155262618Y-49033591D01*
X156248138Y-49033591D01*
X156248138Y-49784882D01*
X156411485Y-49701712D01*
X156595612Y-49635749D01*
X156836689Y-49580541D01*
X157106051Y-49548755D01*
X157359443Y-49540151D01*
X157604506Y-49547724D01*
X157784426Y-49564087D01*
X158020694Y-49603360D01*
X158178878Y-49642733D01*
X158361142Y-49716441D01*
X158484181Y-49807352D01*
X158557715Y-49903103D01*
X158592320Y-50002938D01*
X158597754Y-50066250D01*
X158597754Y-51084743D01*
X157612234Y-51084743D01*
X157612234Y-50156131D01*
G37*
D12*
%TO.P,REF\u002A\u002A,1*%
%TO.N,Net-(J1-Pin_2)*%
X182250096Y-53324744D03*
D13*
%TO.N,Net-(J1-Pin_1)*%
X182250096Y-55864744D03*
%TD*%
D12*
%TO.P,,1*%
%TO.N,N/C*%
X181132824Y-93866593D03*
%TD*%
D14*
%TO.P,REF\u002A\u002A,1*%
%TO.N,Net-(J1-Pin_2)*%
X161930096Y-101589742D03*
D15*
%TO.P,REF\u002A\u002A,2*%
%TO.N,N/C*%
X161930096Y-91429742D03*
%TD*%
D12*
%TO.P,,45*%
%TO.N,N/C*%
X113204422Y-63815000D03*
%TD*%
D16*
%TO.P,DC12v, *%
%TO.N,Net-(J1-Pin_1)*%
X104280096Y-59999743D03*
D17*
%TO.N,Net-(J1-Pin_2)*%
X97980096Y-59999743D03*
D18*
%TO.N,N/C*%
X101380096Y-64799743D03*
%TD*%
D14*
%TO.P,REF\u002A\u002A,1*%
%TO.N,N/C*%
X134625096Y-74284743D03*
D15*
%TO.P,REF\u002A\u002A,2*%
X144785096Y-74284743D03*
%TD*%
D19*
%TO.P,REF\u002A\u002A, *%
%TO.N,unconnected-(U1-A6-Pad25)*%
X156810096Y-96464743D03*
D20*
%TO.N,N/C*%
X154310096Y-93964743D03*
%TO.N,Net-(J1-Pin_2)*%
X151810096Y-96464743D03*
%TD*%
D14*
%TO.P,REF\u002A\u002A,1*%
%TO.N,N/C*%
X129355000Y-58735000D03*
D15*
%TO.P,REF\u002A\u002A,2*%
X136975000Y-58735000D03*
%TD*%
D12*
%TO.P,,1*%
%TO.N,Net-(J1-Pin_2)*%
X182250096Y-53324744D03*
%TD*%
D21*
%TO.P,SSD1306,1*%
%TO.N,Net-(J1-Pin_2)*%
X156105096Y-60429743D03*
%TO.P,SSD1306,2*%
%TO.N,unconnected-(U1-A6-Pad25)*%
X158645096Y-60429743D03*
%TO.P,SSD1306,3*%
%TO.N,N/C*%
X161185096Y-60429743D03*
%TO.P,SSD1306,4*%
%TO.N,unconnected-(U1-A7-Pad26)*%
X163725096Y-60429743D03*
%TD*%
D22*
%TO.P,REF\u002A\u002A,1*%
%TO.N,N/C*%
X133536292Y-70060772D03*
D15*
%TO.P,REF\u002A\u002A,2*%
X130996292Y-70060772D03*
%TO.P,REF\u002A\u002A,3*%
X128456292Y-70060772D03*
%TO.P,REF\u002A\u002A,4*%
X125916292Y-70060772D03*
%TO.P,REF\u002A\u002A,5*%
X123376292Y-70060772D03*
%TO.P,REF\u002A\u002A,6*%
%TO.N,Net-(J2-Pin_1)*%
X120836292Y-70060772D03*
%TO.P,REF\u002A\u002A,7*%
%TO.N,unconnected-(U1-A3-Pad22)*%
X118296292Y-70060772D03*
%TO.P,REF\u002A\u002A,8*%
%TO.N,Net-(J2-Pin_2)*%
X115756292Y-70060772D03*
%TO.P,REF\u002A\u002A,9*%
%TO.N,Net-(J1-Pin_3)*%
X113216292Y-70060772D03*
%TO.P,REF\u002A\u002A,10*%
%TO.N,N/C*%
X110676292Y-70060772D03*
%TO.P,REF\u002A\u002A,11*%
X108136292Y-70060772D03*
%TO.P,REF\u002A\u002A,12*%
X105596292Y-70060772D03*
%TO.P,REF\u002A\u002A,13*%
X103056292Y-70060772D03*
%TO.P,REF\u002A\u002A,14*%
X100516292Y-70060772D03*
%TO.P,REF\u002A\u002A,15*%
X97976292Y-70060772D03*
%TO.P,REF\u002A\u002A,16*%
X97976292Y-85300772D03*
%TO.P,REF\u002A\u002A,17*%
X100516292Y-85300772D03*
%TO.P,REF\u002A\u002A,18*%
X103056292Y-85300772D03*
%TO.P,REF\u002A\u002A,19*%
X105596292Y-85300772D03*
%TO.P,REF\u002A\u002A,20*%
X108136292Y-85300772D03*
%TO.P,REF\u002A\u002A,21*%
X110676292Y-85300772D03*
%TO.P,REF\u002A\u002A,22*%
X113216292Y-85300772D03*
%TO.P,REF\u002A\u002A,23*%
%TO.N,unconnected-(U1-A7-Pad26)*%
X115756292Y-85300772D03*
%TO.P,REF\u002A\u002A,24*%
%TO.N,N/C*%
X118296292Y-85300772D03*
%TO.P,REF\u002A\u002A,25*%
X120836292Y-85300772D03*
%TO.P,REF\u002A\u002A,26*%
X123376292Y-85300772D03*
%TO.P,REF\u002A\u002A,27*%
X125916292Y-85300772D03*
%TO.P,REF\u002A\u002A,28*%
X128456292Y-85300772D03*
%TO.P,REF\u002A\u002A,29*%
%TO.N,Net-(J1-Pin_2)*%
X130996292Y-85300772D03*
%TO.P,REF\u002A\u002A,30*%
%TO.N,Net-(J1-Pin_1)*%
X133536292Y-85300772D03*
%TD*%
D19*
%TO.P,REF\u002A\u002A, *%
%TO.N,unconnected-(U1-A6-Pad25)*%
X105970096Y-96509743D03*
D20*
%TO.N,N/C*%
X103470096Y-94009743D03*
%TO.N,Net-(J1-Pin_2)*%
X100970096Y-96509743D03*
%TD*%
D12*
%TO.P,,1*%
%TO.N,unconnected-(U1-A6-Pad25)*%
X167820096Y-99224743D03*
%TD*%
%TO.P,REF\u002A\u002A,1*%
%TO.N,Net-(J1-Pin_1)*%
X128720000Y-77150000D03*
D13*
%TO.P,REF\u002A\u002A,2*%
%TO.N,Net-(J1-Pin_2)*%
X128720000Y-79690000D03*
%TD*%
D14*
%TO.P,REF\u002A\u002A,1*%
%TO.N,N/C*%
X129355000Y-61275000D03*
D15*
%TO.P,REF\u002A\u002A,2*%
%TO.N,Net-(J2-Pin_1)*%
X136975000Y-61275000D03*
%TD*%
D12*
%TO.P,,1*%
%TO.N,Net-(J1-Pin_2)*%
X113204422Y-57465000D03*
%TD*%
%TO.P,,1*%
%TO.N,Net-(J1-Pin_2)*%
X182250096Y-72379743D03*
%TD*%
%TO.P,REF\u002A\u002A,1*%
%TO.N,Net-(J1-Pin_2)*%
X182250096Y-72379743D03*
D13*
%TO.P,REF\u002A\u002A,2*%
%TO.N,Net-(J2-Pin_2)*%
X182250096Y-74919743D03*
%TD*%
D23*
%TO.P,REF\u002A\u002A,1*%
%TO.N,N/C*%
X123640000Y-60635000D03*
D24*
%TO.P,REF\u002A\u002A,2*%
%TO.N,Net-(J1-Pin_2)*%
X123640000Y-59364999D03*
%TO.P,REF\u002A\u002A,3*%
%TO.N,N/C*%
X123640000Y-58095000D03*
%TO.P,REF\u002A\u002A,4*%
X123640000Y-56825000D03*
%TD*%
D12*
%TO.P,REF\u002A\u002A,1*%
%TO.N,Net-(J1-Pin_2)*%
X182250096Y-62849743D03*
D13*
%TO.P,REF\u002A\u002A,2*%
%TO.N,Net-(J2-Pin_1)*%
X182250096Y-65389743D03*
%TD*%
D12*
%TO.P,,1*%
%TO.N,unconnected-(U1-A6-Pad25)*%
X181155096Y-99224743D03*
%TD*%
%TO.P,,1*%
%TO.N,N/C*%
X167797824Y-93866593D03*
%TD*%
D19*
%TO.P,REF\u002A\u002A, *%
%TO.N,unconnected-(U1-A6-Pad25)*%
X118710096Y-96464743D03*
D20*
%TO.N,N/C*%
X116210096Y-93964743D03*
%TO.N,Net-(J1-Pin_2)*%
X113710096Y-96464743D03*
%TD*%
D12*
%TO.P,REF\u002A\u002A,1*%
%TO.N,Net-(J1-Pin_2)*%
X182250096Y-81904743D03*
D13*
%TO.P,REF\u002A\u002A,2*%
%TO.N,Net-(J1-Pin_3)*%
X182250096Y-84444743D03*
%TD*%
D14*
%TO.P,REF\u002A\u002A,1*%
%TO.N,Net-(J1-Pin_2)*%
X175265096Y-101589742D03*
D15*
%TO.P,REF\u002A\u002A,2*%
%TO.N,N/C*%
X175265096Y-91429742D03*
%TD*%
D14*
%TO.P,REF\u002A\u002A,1*%
%TO.N,N/C*%
X129355000Y-55560000D03*
D15*
%TO.P,REF\u002A\u002A,2*%
%TO.N,Net-(J1-Pin_3)*%
X136975000Y-55560000D03*
%TD*%
D19*
%TO.P,REF\u002A\u002A, *%
%TO.N,unconnected-(U1-A6-Pad25)*%
X131410096Y-96509743D03*
D20*
%TO.N,N/C*%
X128910096Y-94009743D03*
%TO.N,Net-(J1-Pin_2)*%
X126410096Y-96509743D03*
%TD*%
D12*
%TO.P,,1*%
%TO.N,Net-(J1-Pin_2)*%
X182250096Y-81904743D03*
%TD*%
%TO.P,,1*%
%TO.N,Net-(J1-Pin_2)*%
X182250096Y-62849743D03*
%TD*%
D14*
%TO.P,REF\u002A\u002A,1*%
%TO.N,unconnected-(U1-A3-Pad22)*%
X134625096Y-78729743D03*
D15*
%TO.P,REF\u002A\u002A,2*%
%TO.N,N/C*%
X144785096Y-78729743D03*
%TD*%
D19*
%TO.P,REF\u002A\u002A, *%
%TO.N,unconnected-(U1-A6-Pad25)*%
X144110096Y-96464743D03*
D20*
%TO.N,N/C*%
X141610096Y-93964743D03*
%TO.N,Net-(J1-Pin_2)*%
X139110096Y-96464743D03*
%TD*%
D25*
%TO.N,*%
X159200000Y-66990000D03*
X136340000Y-66990000D03*
%TO.N,Net-(J1-Pin_3)*%
X158565000Y-76515000D03*
X143960000Y-62545000D03*
X136975000Y-76515000D03*
X149675000Y-76515000D03*
%TO.N,Net-(J1-Pin_1)*%
X139705096Y-55869743D03*
%TO.N,Net-(J2-Pin_2)*%
X127450000Y-72070000D03*
X142055000Y-61910000D03*
X142055000Y-72070000D03*
%TO.N,Net-(J2-Pin_1)*%
X140785000Y-61910000D03*
X140785000Y-65389743D03*
%TD*%
D26*
%TO.N,*%
X128715000Y-58095000D02*
X129355000Y-58735000D01*
X103470096Y-91604904D02*
X103470096Y-94009743D01*
X128715000Y-60635000D02*
X129355000Y-61275000D01*
X116210096Y-92580096D02*
X116210096Y-93964743D01*
X145230000Y-89850000D02*
X138880000Y-83500000D01*
X108136292Y-85300772D02*
X108136292Y-87681292D01*
X144785096Y-78729743D02*
X154429743Y-78729743D01*
X122370000Y-83500000D02*
X120836292Y-85033708D01*
X123640000Y-56825000D02*
X128090000Y-56825000D01*
X154429743Y-78729743D02*
X161930096Y-86230096D01*
X123376292Y-70060772D02*
X123376292Y-71171292D01*
X128090000Y-56825000D02*
X129355000Y-55560000D01*
X126489743Y-74284743D02*
X134625096Y-74284743D01*
X124115353Y-89215000D02*
X128910096Y-94009743D01*
X113216292Y-87681292D02*
X113480000Y-87945000D01*
X108136292Y-87681292D02*
X110940000Y-90485000D01*
X110676292Y-87681292D02*
X112210000Y-89215000D01*
X167797824Y-92732824D02*
X167797824Y-93866593D01*
X120836292Y-85033708D02*
X120836292Y-85300772D01*
X110940000Y-90485000D02*
X114115000Y-90485000D01*
X113580096Y-85664576D02*
X113216292Y-85300772D01*
X166494742Y-91429742D02*
X167797824Y-92732824D01*
X113216292Y-85300772D02*
X113216292Y-87681292D01*
X123376292Y-71171292D02*
X126489743Y-74284743D01*
X123640000Y-58095000D02*
X128715000Y-58095000D01*
X123640000Y-60635000D02*
X128715000Y-60635000D01*
X138880000Y-83500000D02*
X122370000Y-83500000D01*
X138880000Y-87945000D02*
X141610096Y-90675096D01*
X110676292Y-85300772D02*
X110676292Y-87681292D01*
X161930096Y-86230096D02*
X161930096Y-91429742D01*
X154310096Y-93964743D02*
X150195353Y-89850000D01*
X114115000Y-90485000D02*
X116210096Y-92580096D01*
X112210000Y-89215000D02*
X124115353Y-89215000D01*
X113480000Y-87945000D02*
X138880000Y-87945000D01*
X141610096Y-90675096D02*
X141610096Y-93964743D01*
X105596292Y-85300772D02*
X105596292Y-89478708D01*
X150195353Y-89850000D02*
X145230000Y-89850000D01*
X167440974Y-93509743D02*
X167797824Y-93866593D01*
X136340000Y-66990000D02*
X159200000Y-66990000D01*
X105596292Y-89478708D02*
X103470096Y-91604904D01*
X161930096Y-91429742D02*
X166494742Y-91429742D01*
%TO.N,Net-(J1-Pin_3)*%
X138880000Y-57465000D02*
X142055000Y-57465000D01*
X143960000Y-59370000D02*
X143960000Y-62545000D01*
X149675000Y-76515000D02*
X158565000Y-76515000D01*
X136975000Y-55560000D02*
X138880000Y-57465000D01*
X142055000Y-57465000D02*
X143960000Y-59370000D01*
X140785000Y-76515000D02*
X149675000Y-76515000D01*
X136975000Y-76515000D02*
X140785000Y-76515000D01*
D27*
%TO.N,Net-(J1-Pin_1)*%
X139705096Y-55869743D02*
X140340096Y-55869743D01*
X140345095Y-55864744D02*
X182250096Y-55864744D01*
X140340096Y-55869743D02*
X140345095Y-55864744D01*
D26*
%TO.N,Net-(J2-Pin_2)*%
X177615000Y-72070000D02*
X142055000Y-72070000D01*
X140785000Y-58735000D02*
X142055000Y-60005000D01*
X142055000Y-60005000D02*
X142055000Y-61910000D01*
X142055000Y-72070000D02*
X127450000Y-72070000D01*
X182250096Y-74919743D02*
X180464743Y-74919743D01*
X136975000Y-58735000D02*
X140785000Y-58735000D01*
X180464743Y-74919743D02*
X177615000Y-72070000D01*
%TO.N,Net-(J2-Pin_1)*%
X140150000Y-61275000D02*
X140785000Y-61910000D01*
X136975000Y-61275000D02*
X140150000Y-61275000D01*
X120836292Y-70060772D02*
X120836292Y-67888708D01*
X120836292Y-67888708D02*
X123335257Y-65389743D01*
X143960000Y-65389743D02*
X140785000Y-65389743D01*
X182250096Y-65389743D02*
X143960000Y-65389743D01*
X123335257Y-65389743D02*
X140785000Y-65389743D01*
%TO.N,unconnected-(U1-A2-Pad21)*%
X175265096Y-78610096D02*
X175265096Y-91429742D01*
X178695973Y-91429742D02*
X181132824Y-93866593D01*
X144785096Y-74284743D02*
X170939743Y-74284743D01*
X175265096Y-91429742D02*
X178695973Y-91429742D01*
X170939743Y-74284743D02*
X175265096Y-78610096D01*
%TO.N,unconnected-(U1-A7-Pad26)*%
X120465000Y-63815000D02*
X162375000Y-63815000D01*
X163725096Y-62464904D02*
X163725096Y-60429743D01*
X93795000Y-68260000D02*
X94430000Y-67625000D01*
X106812500Y-72705000D02*
X94430000Y-72705000D01*
X94430000Y-72705000D02*
X93795000Y-72070000D01*
X93795000Y-72070000D02*
X93795000Y-68260000D01*
X162375000Y-63815000D02*
X163725096Y-62464904D01*
X94430000Y-67625000D02*
X116655000Y-67625000D01*
X115756292Y-85300772D02*
X115756292Y-81648792D01*
X116655000Y-67625000D02*
X120465000Y-63815000D01*
X115756292Y-81648792D02*
X106812500Y-72705000D01*
%TO.N,unconnected-(U1-A3-Pad22)*%
X133165000Y-75880000D02*
X132530000Y-75245000D01*
X118296292Y-74346292D02*
X118296292Y-70060772D01*
X132530000Y-75245000D02*
X119195000Y-75245000D01*
X119195000Y-75245000D02*
X118296292Y-74346292D01*
X133165000Y-78420000D02*
X133165000Y-75880000D01*
X134625096Y-78729743D02*
X133474743Y-78729743D01*
X133474743Y-78729743D02*
X133165000Y-78420000D01*
%TO.N,unconnected-(U1-A6-Pad25)*%
X166449743Y-96464743D02*
X167820096Y-97835096D01*
X144110096Y-100494904D02*
X156175096Y-100494904D01*
X181155096Y-97835096D02*
X181155096Y-99224743D01*
X167820096Y-97739904D02*
X169360000Y-96200000D01*
X105860000Y-99375000D02*
X105860000Y-96619839D01*
X156810096Y-96464743D02*
X166449743Y-96464743D01*
X107130000Y-100645000D02*
X105860000Y-99375000D01*
X118710096Y-96464743D02*
X118710096Y-100494904D01*
X179520000Y-96200000D02*
X181155096Y-97835096D01*
X118710096Y-100494904D02*
X118560000Y-100645000D01*
X118710096Y-100494904D02*
X131410096Y-100494904D01*
X131410096Y-100494904D02*
X131410096Y-96509743D01*
X118560000Y-100645000D02*
X107130000Y-100645000D01*
X167820096Y-97835096D02*
X167820096Y-99224743D01*
X105860000Y-96619839D02*
X105970096Y-96509743D01*
X144110096Y-100494904D02*
X144110096Y-96464743D01*
X131410096Y-100494904D02*
X144110096Y-100494904D01*
X156810096Y-99859904D02*
X156810096Y-96464743D01*
X156175096Y-100494904D02*
X156810096Y-99859904D01*
X167820096Y-97835096D02*
X167820096Y-97739904D01*
X169360000Y-96200000D02*
X179520000Y-96200000D01*
%TD*%
M02*
