M48
; DRILL file {KiCad 8.0.4-8.0.4-0~ubuntu22.04.1} date 2024-09-15T12:59:43-0400
; FORMAT={-:-/ absolute / inch / decimal}
; #@! TF.CreationDate,2024-09-15T12:59:43-04:00
; #@! TF.GenerationSoftware,Kicad,Pcbnew,8.0.4-8.0.4-0~ubuntu22.04.1
; #@! TF.FileFunction,Plated,1,2,PTH
FMAT,2
INCH
; #@! TA.AperFunction,Plated,PTH,ViaDrill
T1C0.0118
; #@! TA.AperFunction,Plated,PTH,ComponentDrill
T2C0.0315
; #@! TA.AperFunction,Plated,PTH,ComponentDrill
T3C0.0354
; #@! TA.AperFunction,Plated,PTH,ComponentDrill
T4C0.0394
%
G90
G05
T1
X5.0177Y-2.8374
X5.3677Y-2.6374
X5.3927Y-3.0124
X5.5002Y-2.1996
X5.5427Y-2.4374
X5.5427Y-2.5744
X5.5927Y-2.4374
X5.5927Y-2.8374
X5.6677Y-2.4624
X5.8927Y-3.0124
X6.2427Y-3.0124
X6.2677Y-2.6374
T2
X5.0927Y-2.1874
X5.0927Y-2.3124
X5.0927Y-2.4124
X5.3002Y-2.9246
X5.3002Y-3.0996
X5.3927Y-2.1874
X5.3927Y-2.3124
X5.3927Y-2.4124
X5.7002Y-2.9246
X5.7002Y-3.0996
X6.3752Y-3.5996
X6.3752Y-3.9996
X6.9002Y-3.5996
X6.9002Y-3.9996
T3
X4.8677Y-2.2372
X4.8677Y-2.2872
X4.8677Y-2.3372
X4.8677Y-2.3872
T4
X3.8573Y-2.7583
X3.8573Y-3.3583
X3.9573Y-2.7583
X3.9573Y-3.3583
X3.9752Y-3.7996
X4.0573Y-2.7583
X4.0573Y-3.3583
X4.0736Y-3.7012
X4.1573Y-2.7583
X4.1573Y-3.3583
X4.1721Y-3.7996
X4.2573Y-2.7583
X4.2573Y-3.3583
X4.3573Y-2.7583
X4.3573Y-3.3583
X4.4569Y-2.2624
X4.4569Y-2.5124
X4.4573Y-2.7583
X4.4573Y-3.3583
X4.4768Y-3.7978
X4.5573Y-2.7583
X4.5573Y-3.3583
X4.5752Y-3.6994
X4.6573Y-2.7583
X4.6573Y-3.3583
X4.6736Y-3.7978
X4.7573Y-2.7583
X4.7573Y-3.3583
X4.8573Y-2.7583
X4.8573Y-3.3583
X4.9573Y-2.7583
X4.9573Y-3.3583
X4.9768Y-3.7996
X5.0573Y-2.7583
X5.0573Y-3.3583
X5.0677Y-3.0374
X5.0677Y-3.1374
X5.0752Y-3.7012
X5.1573Y-2.7583
X5.1573Y-3.3583
X5.1736Y-3.7996
X5.2573Y-2.7583
X5.2573Y-3.3583
X5.4768Y-3.7978
X5.5752Y-3.6994
X5.6736Y-3.7978
X5.9768Y-3.7978
X6.0752Y-3.6994
X6.1459Y-2.3791
X6.1736Y-3.7978
X6.2459Y-2.3791
X6.3459Y-2.3791
X6.4459Y-2.3791
X6.6062Y-3.6955
X6.6071Y-3.9065
X7.1312Y-3.6955
X7.1321Y-3.9065
X7.1752Y-2.0994
X7.1752Y-2.0994
X7.1752Y-2.1994
X7.1752Y-2.4744
X7.1752Y-2.4744
X7.1752Y-2.5744
X7.1752Y-2.8496
X7.1752Y-2.8496
X7.1752Y-2.9496
X7.1752Y-3.2246
X7.1752Y-3.2246
X7.1752Y-3.3246
T4
G00X3.8575Y-2.3189
M15
G01X3.8575Y-2.4055
M16
G05
G00X4.0346Y-2.5512
M15
G01X3.948Y-2.5512
M16
G05
G00X4.1055Y-2.311
M15
G01X4.1055Y-2.4134
M16
G05
M30
