%TF.GenerationSoftware,KiCad,Pcbnew,8.0.4-8.0.4-0~ubuntu22.04.1*%
%TF.CreationDate,2024-09-15T12:59:40-04:00*%
%TF.ProjectId,RonsEcono15,526f6e73-4563-46f6-9e6f-31352e6b6963,rev?*%
%TF.SameCoordinates,Original*%
%TF.FileFunction,Soldermask,Top*%
%TF.FilePolarity,Negative*%
%FSLAX46Y46*%
G04 Gerber Fmt 4.6, Leading zero omitted, Abs format (unit mm)*
G04 Created by KiCad (PCBNEW 8.0.4-8.0.4-0~ubuntu22.04.1) date 2024-09-15 12:59:40*
%MOMM*%
%LPD*%
G01*
G04 APERTURE LIST*
%ADD10R,1.700000X1.700000*%
%ADD11O,1.700000X1.700000*%
%ADD12C,1.600000*%
%ADD13O,1.600000X1.600000*%
%ADD14R,2.000000X4.600000*%
%ADD15O,2.000000X4.200000*%
%ADD16O,4.200000X2.000000*%
%ADD17R,1.550000X1.550000*%
%ADD18C,1.550000*%
%ADD19O,1.600000X2.000000*%
%ADD20R,1.600000X1.600000*%
%ADD21R,1.800000X1.070000*%
%ADD22O,1.800000X1.070000*%
G04 APERTURE END LIST*
D10*
%TO.C,REF\u002A\u002A*%
X182250096Y-53324744D03*
D11*
X182250096Y-55864744D03*
%TD*%
D10*
%TO.C,*%
X181132824Y-93866593D03*
%TD*%
D12*
%TO.C,REF\u002A\u002A*%
X161930096Y-101589742D03*
D13*
X161930096Y-91429742D03*
%TD*%
D10*
%TO.C,*%
X113204422Y-63815000D03*
%TD*%
D14*
%TO.C,DC12v*%
X104280096Y-59999743D03*
D15*
X97980096Y-59999743D03*
D16*
X101380096Y-64799743D03*
%TD*%
D12*
%TO.C,REF\u002A\u002A*%
X134625096Y-74284743D03*
D13*
X144785096Y-74284743D03*
%TD*%
D17*
%TO.C,REF\u002A\u002A*%
X156810096Y-96464743D03*
D18*
X154310096Y-93964743D03*
X151810096Y-96464743D03*
%TD*%
D12*
%TO.C,REF\u002A\u002A*%
X129355000Y-58735000D03*
D13*
X136975000Y-58735000D03*
%TD*%
D10*
%TO.C,*%
X182250096Y-53324744D03*
%TD*%
D19*
%TO.C,SSD1306*%
X156105096Y-60429743D03*
X158645096Y-60429743D03*
X161185096Y-60429743D03*
X163725096Y-60429743D03*
%TD*%
D20*
%TO.C,REF\u002A\u002A*%
X133536292Y-70060772D03*
D13*
X130996292Y-70060772D03*
X128456292Y-70060772D03*
X125916292Y-70060772D03*
X123376292Y-70060772D03*
X120836292Y-70060772D03*
X118296292Y-70060772D03*
X115756292Y-70060772D03*
X113216292Y-70060772D03*
X110676292Y-70060772D03*
X108136292Y-70060772D03*
X105596292Y-70060772D03*
X103056292Y-70060772D03*
X100516292Y-70060772D03*
X97976292Y-70060772D03*
X97976292Y-85300772D03*
X100516292Y-85300772D03*
X103056292Y-85300772D03*
X105596292Y-85300772D03*
X108136292Y-85300772D03*
X110676292Y-85300772D03*
X113216292Y-85300772D03*
X115756292Y-85300772D03*
X118296292Y-85300772D03*
X120836292Y-85300772D03*
X123376292Y-85300772D03*
X125916292Y-85300772D03*
X128456292Y-85300772D03*
X130996292Y-85300772D03*
X133536292Y-85300772D03*
%TD*%
D17*
%TO.C,REF\u002A\u002A*%
X105970096Y-96509743D03*
D18*
X103470096Y-94009743D03*
X100970096Y-96509743D03*
%TD*%
D10*
%TO.C,*%
X167820096Y-99224743D03*
%TD*%
%TO.C,REF\u002A\u002A*%
X128720000Y-77150000D03*
D11*
X128720000Y-79690000D03*
%TD*%
D12*
%TO.C,REF\u002A\u002A*%
X129355000Y-61275000D03*
D13*
X136975000Y-61275000D03*
%TD*%
D10*
%TO.C,*%
X113204422Y-57465000D03*
%TD*%
%TO.C,*%
X182250096Y-72379743D03*
%TD*%
%TO.C,REF\u002A\u002A*%
X182250096Y-72379743D03*
D11*
X182250096Y-74919743D03*
%TD*%
D21*
%TO.C,REF\u002A\u002A*%
X123640000Y-60635000D03*
D22*
X123640000Y-59364999D03*
X123640000Y-58095000D03*
X123640000Y-56825000D03*
%TD*%
D10*
%TO.C,REF\u002A\u002A*%
X182250096Y-62849743D03*
D11*
X182250096Y-65389743D03*
%TD*%
D10*
%TO.C,*%
X181155096Y-99224743D03*
%TD*%
%TO.C,*%
X167797824Y-93866593D03*
%TD*%
D17*
%TO.C,REF\u002A\u002A*%
X118710096Y-96464743D03*
D18*
X116210096Y-93964743D03*
X113710096Y-96464743D03*
%TD*%
D10*
%TO.C,REF\u002A\u002A*%
X182250096Y-81904743D03*
D11*
X182250096Y-84444743D03*
%TD*%
D12*
%TO.C,REF\u002A\u002A*%
X175265096Y-101589742D03*
D13*
X175265096Y-91429742D03*
%TD*%
D12*
%TO.C,REF\u002A\u002A*%
X129355000Y-55560000D03*
D13*
X136975000Y-55560000D03*
%TD*%
D17*
%TO.C,REF\u002A\u002A*%
X131410096Y-96509743D03*
D18*
X128910096Y-94009743D03*
X126410096Y-96509743D03*
%TD*%
D10*
%TO.C,*%
X182250096Y-81904743D03*
%TD*%
%TO.C,*%
X182250096Y-62849743D03*
%TD*%
D12*
%TO.C,REF\u002A\u002A*%
X134625096Y-78729743D03*
D13*
X144785096Y-78729743D03*
%TD*%
D17*
%TO.C,REF\u002A\u002A*%
X144110096Y-96464743D03*
D18*
X141610096Y-93964743D03*
X139110096Y-96464743D03*
%TD*%
M02*
